SplineFontDB: 3.0
FontName: Liikenne
FullName: Liikenne
FamilyName: Liikenne
Weight: Regular
Copyright: Copyright (c) 2019, Teemu,,,
UComments: "2019-5-11: Created with FontForge (http://fontforge.org)"
Version: 001.000
ItalicAngle: 0
UnderlinePosition: -101
UnderlineWidth: 49
Ascent: 820
Descent: 204
InvalidEm: 0
LayerCount: 2
Layer: 0 0 "Back" 1
Layer: 1 0 "Fore" 0
XUID: [1021 917 472324179 16020871]
OS2Version: 0
OS2_WeightWidthSlopeOnly: 0
OS2_UseTypoMetrics: 1
CreationTime: 1557566302
ModificationTime: 1557609951
OS2TypoAscent: 0
OS2TypoAOffset: 1
OS2TypoDescent: 0
OS2TypoDOffset: 1
OS2TypoLinegap: 0
OS2WinAscent: 0
OS2WinAOffset: 1
OS2WinDescent: 0
OS2WinDOffset: 1
HheadAscent: 0
HheadAOffset: 1
HheadDescent: 0
HheadDOffset: 1
OS2Vendor: 'PfEd'
MarkAttachClasses: 1
DEI: 91125
Encoding: iso8859-15
UnicodeInterp: none
NameList: AGL For New Fonts
DisplaySize: -48
AntiAlias: 1
FitToEm: 0
WinInfo: 0 38 14
BeginPrivate: 0
EndPrivate
Grid
-1024 480 m 0
 2048 480 l 1024
  Named: "x-height"
-1024 635 m 0
 2048 635 l 1024
  Named: "Cap height"
EndSplineSet
BeginChars: 259 38

StartChar: M
Encoding: 77 77 0
Width: 523
VWidth: 0
Flags: HW
LayerCount: 2
Back
Fore
SplineSet
105 0 m 25
 105 392 l 25
 265 0 l 25
 419 383 l 25
 419 0 l 25
 523 0 l 25
 523 635 l 25
 410 635 l 25
 265 288 l 1
 114 635 l 1
 0 635 l 1
 0 0 l 25
 105 0 l 25
0 0 m 1025
EndSplineSet
EndChar

StartChar: zero
Encoding: 48 48 1
Width: 357
VWidth: 0
Flags: HW
LayerCount: 2
Back
Fore
SplineSet
95.3251953125 465 m 26
 95.3251953125 164.299804688 l 18
 95.3251953125 121.674804688 131.75 97.650390625 173.599609375 97.650390625 c 3
 209.25 97.650390625 248 128.650390625 248 164.299804688 c 26
 248 465 l 26
 248 500.650390625 209.25 536.299804688 173.599609375 536.299804688 c 3
 136.400390625 536.299804688 96.099609375 502.200195312 95.3251953125 465 c 26
0 465 m 26
 0 465 27.900390625 633.950195312 173.599609375 633.950195312 c 3
 342.549804688 633.950195312 354.174804688 465 354.174804688 465 c 26
 354.174804688 164.299804688 l 26
 354.174804688 164.299804688 332.474609375 0 173.599609375 0 c 3
 26.349609375 0 0 164.299804688 0 164.299804688 c 26
 0 465 l 26
EndSplineSet
EndChar

StartChar: one
Encoding: 49 49 2
Width: 180
VWidth: 0
Flags: HW
LayerCount: 2
Back
Fore
SplineSet
80.857421875 0 m 1
 180 0 l 1
 180 634 l 1
 70 634 l 1
 63 579 43 560 -0.0029296875 540.915039062 c 1
 14.76953125 470.940429688 l 1
 80.080078125 480.26953125 l 1
 80.857421875 0 l 1
EndSplineSet
EndChar

StartChar: two
Encoding: 50 50 3
Width: 342
VWidth: 0
Flags: HW
LayerCount: 2
Back
Fore
SplineSet
0 420 m 1
 101 420 l 1
 101 469.455078125 l 2
 101 518.44140625 161.878566458 552.183003984 211 522 c 0
 245.05606522 501.074015596 254.528904712 436.620323406 228.940429688 402.17578125 c 2
 0 94 l 1
 0 0 l 1
 342 0 l 1
 342 102 l 1
 123 102 l 1
 320 359 l 2
 367.945933865 421.548756362 329.144922061 561.665956276 315.5703125 576.190429688 c 0
 229.958884639 667.792394524 82.5674297184 630.741267888 72 599 c 0
 55.160235673 548.418592323 -3.26863492847e-15 532.255859375 0 478.875 c 2
 0 420 l 1
EndSplineSet
EndChar

StartChar: three
Encoding: 51 51 4
Width: 358
VWidth: 0
Flags: HW
LayerCount: 2
Back
Fore
SplineSet
20 470.22265625 m 1
 20 498.990234375 l 18
 20 604.37890625 191.755460231 671.021845343 277.34765625 606.450195312 c 0
 360.623568367 543.625974141 349.229009789 383.307614036 296.78515625 344.432617188 c 1
 325.80468389 300.338087825 402.458469183 204.498310547 323 77 c 0
 246.767643752 -45.3217201463 102.12963086 5.77517746598 60.4248046875 41.20703125 c 0
 21.6016815384 74.1906292914 0 105.47265625 0 156.009765625 c 26
 0 184 l 25
 102.629882812 184 l 25
 102.629882812 171.560546875 l 18
 102.629882812 118.084156531 155.401207562 73.8963210787 227.587890625 112.737304688 c 0
 286.028761385 144.182175223 263.33696947 221.275941878 247.802734375 250.35546875 c 0
 231.80078125 280.310546875 198.202148438 296.477539062 174.099609375 296.477539062 c 10
 143 296.477539062 l 25
 143 389 l 25
 174.099609375 389 l 2
 226.255859375 389 255.756360072 456.710640492 220 514 c 0
 199.979492188 546.077148438 123 533.461914062 123 494.325195312 c 2
 123 471 l 9
 20 470.22265625 l 1
EndSplineSet
EndChar

StartChar: four
Encoding: 52 52 5
Width: 390
VWidth: 0
Flags: HW
LayerCount: 2
Back
Fore
SplineSet
240 220 m 25
 240 433 l 25
 113 231 l 25
 113 220 l 25
 240 220 l 25
236 0 m 25
 236 122 l 25
 0 122 l 25
 0 228 l 25
 234 634 l 25
 339 634 l 25
 339 225 l 25
 390 225 l 25
 390 122 l 25
 339 122 l 25
 339 0 l 25
 236 0 l 25
EndSplineSet
EndChar

StartChar: five
Encoding: 53 53 6
Width: 359
VWidth: 0
Flags: HW
LayerCount: 2
Back
Fore
SplineSet
283.8671875 633.970703125 m 25
 35.1220703125 633.970703125 l 1
 0 315 l 1
 114 287 l 1
 134.857421875 313.264648438 149.349609375 317.002929688 176.387695312 317.002929688 c 3
 208.059570312 317.002929688 246 299.049804688 246 254.245117188 c 2
 246 160 l 2
 246 91.2470703125 102.227539062 81.3896484375 102.227539062 154.004882812 c 2
 102.227539062 184 l 1
 0 183.95703125 l 1
 1.0302734375 156.322265625 l 2
 5.60040669621 33.7387291747 189.379748961 -59.9691855025 299.987304688 43.537109375 c 0
 391.750279703 129.408689199 364.525390625 302.384765625 320 354 c 0
 258.630859375 425.141601562 171 433 113.815429688 405.067382812 c 1
 124 532 l 25
 297 532 l 1
 283.8671875 633.970703125 l 25
EndSplineSet
EndChar

StartChar: six
Encoding: 54 54 7
Width: 357
VWidth: 0
Flags: HW
LayerCount: 2
Back
Fore
SplineSet
95.5849609375 182.349609375 m 27
 95.5849609375 136.44921875 132.3046875 98.96484375 178.205078125 98.96484375 c 27
 224.870117188 98.96484375 257 143.334960938 257 190 c 27
 257 236.665039062 227.165039062 281.03515625 180.5 281.03515625 c 27
 130.009765625 281.03515625 95.5849609375 232.83984375 95.5849609375 182.349609375 c 27
170.540039062 631.1796875 m 1
 296 631.1796875 l 1
 176.66015625 508.014648438 147.834960938 464.21484375 118 364 c 1
 181.495117188 396.895507812 280.562236641 366.106617167 314.360351562 312.174804688 c 0
 368.693221611 225.475585937 373.949839976 151.582254145 313.594726562 69.669921875 c 0
 252.874372429 -12.7381052504 145.245708194 -19.6418562889 82.5654296875 35.2451171875 c 0
 28.9078349874 82.2312354254 0 128.854492188 0 200 c 3
 0 370.594726562 54.259765625 516.4296875 170.540039062 631.1796875 c 1
EndSplineSet
EndChar

StartChar: seven
Encoding: 55 55 9
Width: 305
VWidth: 0
Flags: HW
LayerCount: 2
Back
Fore
SplineSet
203 504 m 1
 203 533 l 1
 0 534.129882812 l 1
 0 635 l 1
 305 635 l 1
 305 611 l 2
 305 470 205.409090501 337.861929073 204.129882812 158.459960938 c 2
 203 0 l 25
 101.360351562 0.76953125 l 1
 101.587890625 43.43359375 102.490234375 165.389648438 102.490234375 165.389648438 c 2
 103.273339389 279.485409236 165.565429688 409.809570312 203 504 c 1
EndSplineSet
EndChar

StartChar: eight
Encoding: 56 56 10
Width: 358
VWidth: 0
Flags: HW
LayerCount: 2
Back
Fore
SplineSet
180 303.600585938 m 27
 126.400390625 303.600585938 91 251.600585938 91 198 c 27
 91 143.600585938 125.599609375 94.80078125 180 94.80078125 c 27
 231.200195312 94.80078125 264.600585938 146.80078125 264.600585938 198 c 27
 264.600585938 250.80078125 232.799804688 303.600585938 180 303.600585938 c 27
110.599609375 463 m 27
 110.599609375 423 140 384.200195312 180 384.200195312 c 27
 219.200195312 384.200195312 238.599609375 423.80078125 238.599609375 463 c 27
 238.599609375 501.400390625 218.400390625 539.400390625 180 539.400390625 c 27
 140 539.400390625 110.599609375 503 110.599609375 463 c 27
21 496.200195312 m 2
 21 574.599609375 96.7998046875 635 176 635 c 3
 256.799804688 635 337 577 337 496.200195312 c 2
 337 421 l 2
 337 398.599609375 317.799804688 361 297.799804688 340.200195312 c 1
 330.832179541 301.071936991 400.213495081 193.72443044 309 62 c 0
 238.405107335 -39.94842353 85.348066193 2.17306708624 47 58 c 0
 -15.8815361599 149.542642152 -18.6605613273 265.935129511 57 346 c 1
 35.400390625 368.399414062 21 385 21 421 c 2
 21 496.200195312 l 2
EndSplineSet
EndChar

StartChar: A
Encoding: 65 65 11
Width: 453
VWidth: 0
Flags: HW
LayerCount: 2
Back
Fore
SplineSet
159.337890625 199.33984375 m 1
 294 200 l 1
 225 430 l 1
 159.337890625 199.33984375 l 1
0 0 m 1
 170 635 l 1
 278 635 l 1
 453 0 l 1
 350 0 l 1
 317 102 l 1
 132 103 l 1
 99 0 l 1
 0 0 l 1
EndSplineSet
EndChar

StartChar: B
Encoding: 66 66 12
Width: 424
VWidth: 0
Flags: HW
LayerCount: 2
Back
Fore
SplineSet
239.280273438 278 m 2
 102 278 l 1
 102 102.5 l 1
 248.639648438 102.5 l 2
 335.219726562 102.5 367.09765625 278 239.280273438 278 c 2
102.959960938 532.8203125 m 25
 102.959960938 386.959960938 l 1
 236.33984375 386.959960938 l 26
 262.173828125 386.959960938 280.01953125 405.48046875 280.01953125 428.30078125 c 2
 280.01953125 493.040039062 l 26
 280.01953125 514.999023438 254.510742188 532.8203125 223.080078125 532.8203125 c 26
 102.959960938 532.8203125 l 25
0 0 m 1
 0 635 l 1
 209 635 l 2
 353.499571969 635 454.446482221 471.950462929 350 343 c 1
 394.459960938 296.200195312 423.540039062 254.360351562 423.540039062 189.620117188 c 3
 423.540039062 96.0205078125 350.374122673 -1.15574967254e-14 256 0 c 2
 0 0 l 1
EndSplineSet
EndChar

StartChar: C
Encoding: 67 67 13
Width: 418
VWidth: 0
Flags: HW
LayerCount: 2
Back
Fore
SplineSet
101 437 m 26
 101 437 118 534 205 534 c 3
 292 534 306 458 306 458 c 26
 306 420 l 1
 418 420 l 1
 418 443 l 26
 418 443 382 635 206 635 c 3
 26 635 0 443 0 443 c 26
 0 178 l 26
 0 178 39 0 209 0 c 3
 382 0 417 182 417 182 c 26
 417 226 l 25
 305 226 l 25
 305 185 l 26
 305 185 296 102 210 102 c 3
 109 102 102 202 102 202 c 26
 101 437 l 26
EndSplineSet
EndChar

StartChar: Adieresis
Encoding: 196 196 14
Width: 453
VWidth: 0
Flags: HW
LayerCount: 2
Back
Fore
SplineSet
268 702 m 0
 268 732 293 757 323 757 c 0
 353 757 378 732 378 702 c 0
 378 672 353 647 323 647 c 0
 293 647 268 672 268 702 c 0
83 702 m 0
 83 732 108 757 138 757 c 0
 168 757 193 732 193 702 c 0
 193 672 168 647 138 647 c 0
 108 647 83 672 83 702 c 0
EndSplineSet
Refer: 11 65 N 1 0 0 1 0 0 2
EndChar

StartChar: V
Encoding: 86 86 15
Width: 450
VWidth: 0
Flags: HW
LayerCount: 2
Back
Fore
SplineSet
0 635 m 25
 177 0 l 25
 276 0 l 1
 450 635 l 25
 344 635 l 1
 229 206 l 25
 110 635 l 25
 0 635 l 25
EndSplineSet
EndChar

StartChar: exclam
Encoding: 33 33 16
Width: 128
VWidth: 0
Flags: HW
LayerCount: 2
Back
Fore
SplineSet
128 179 m 25
 0 179 l 25
 0 793 l 25
 128 793 l 25
 128 179 l 25
2 63 m 0
 2 98 30 126 65 126 c 0
 100 126 128 98 128 63 c 0
 128 28 100 0 65 0 c 0
 30 0 2 28 2 63 c 0
EndSplineSet
EndChar

StartChar: D
Encoding: 68 68 17
Width: 413
VWidth: 0
Flags: HW
LayerCount: 2
Back
Fore
SplineSet
101 533 m 25
 101 101 l 25
 208 101 l 18
 284 101 312 133 312 200 c 10
 312 432 l 18
 312 504 280 533 208 533 c 10
 101 533 l 25
0 0 m 1
 0 635 l 1
 208 635 l 2
 308 635 413 543 413 432 c 2
 413 200 l 2
 413 116 363 -1.89820253868e-14 208 0 c 2
 0 0 l 1
EndSplineSet
EndChar

StartChar: E
Encoding: 69 69 18
Width: 353
VWidth: 0
Flags: HW
LayerCount: 2
Back
Fore
SplineSet
0 0 m 25
 353 0 l 25
 353 103 l 1
 101 103 l 25
 101 278 l 1
 271 278 l 1
 271 390 l 1
 101 390 l 1
 101 534 l 25
 353 534 l 1
 353 635 l 25
 0 635 l 25
 0 0 l 25
EndSplineSet
EndChar

StartChar: Aring
Encoding: 197 197 19
Width: 453
VWidth: 0
Flags: HW
LayerCount: 2
Back
Fore
SplineSet
202 733 m 0
 202 718 214 706 229 706 c 0
 244 706 256 718 256 733 c 0
 256 748 244 760 229 760 c 0
 214 760 202 748 202 733 c 0
151 731 m 0
 151 774 186 809 229 809 c 0
 272 809 307 774 307 731 c 0
 307 688 272 653 229 653 c 0
 186 653 151 688 151 731 c 0
EndSplineSet
Refer: 11 65 N 1 0 0 1 0 0 2
EndChar

StartChar: O
Encoding: 79 79 20
Width: 422
VWidth: 0
Flags: HW
LayerCount: 2
Back
Fore
SplineSet
103 423 m 26
 103 200 l 26
 103 141 152.535725011 99 212 99 c 27
 271.41380311 99 320 140 320 200 c 26
 320 423 l 26
 320 484 273 534 212 534 c 27
 149 534 103 486 103 423 c 26
0 423 m 26
 0 543 93 635 212 635 c 27
 326 635 422 538 422 423 c 26
 422 200 l 26
 422 90 322 0 212 0 c 27
 97 0 0 85 0 200 c 26
 0 423 l 26
EndSplineSet
EndChar

StartChar: Odieresis
Encoding: 214 214 21
Width: 422
VWidth: 0
Flags: HW
LayerCount: 2
Fore
SplineSet
248.5 702 m 0
 248.5 732 273.5 757 303.5 757 c 0
 333.5 757 358.5 732 358.5 702 c 0
 358.5 672 333.5 647 303.5 647 c 0
 273.5 647 248.5 672 248.5 702 c 0
63.5 702 m 0
 63.5 732 88.5 757 118.5 757 c 0
 148.5 757 173.5 732 173.5 702 c 0
 173.5 672 148.5 647 118.5 647 c 0
 88.5 647 63.5 672 63.5 702 c 0
EndSplineSet
Refer: 20 79 S 1 0 0 1 0 0 2
EndChar

StartChar: Edieresis
Encoding: 203 203 22
Width: 353
VWidth: 0
Flags: HW
LayerCount: 2
Fore
SplineSet
214 702 m 0
 214 732 239 757 269 757 c 0
 299 757 324 732 324 702 c 0
 324 672 299 647 269 647 c 0
 239 647 214 672 214 702 c 0
29 702 m 0
 29 732 54 757 84 757 c 0
 114 757 139 732 139 702 c 0
 139 672 114 647 84 647 c 0
 54 647 29 672 29 702 c 0
EndSplineSet
Refer: 18 69 N 1 0 0 1 0 0 2
EndChar

StartChar: U
Encoding: 85 85 23
Width: 418
VWidth: 0
Flags: HW
LayerCount: 2
Back
Fore
SplineSet
0 635 m 25
 0 200 l 26
 0 87 101 0 213 0 c 27
 320 0 418 92 418 200 c 26
 418 635 l 25
 315 635 l 25
 315 200 l 26
 315 140 268 101 208 101 c 27
 152 101 111 143 111 200 c 26
 111 635 l 25
 0 635 l 25
EndSplineSet
EndChar

StartChar: H
Encoding: 72 72 24
Width: 414
VWidth: 0
Flags: HW
LayerCount: 2
Back
Fore
SplineSet
0 635 m 25
 0 0 l 25
 100 0 l 25
 100 275 l 25
 314 275 l 25
 314 0 l 25
 414 0 l 25
 414 635 l 25
 314 635 l 25
 314 391 l 25
 100 391 l 25
 100 635 l 25
 0 635 l 25
EndSplineSet
EndChar

StartChar: W
Encoding: 87 87 25
Width: 600
VWidth: 0
Flags: HW
LayerCount: 2
Back
Fore
SplineSet
0 635 m 25
 133 0 l 25
 234 0 l 25
 306 338 l 25
 372 0 l 25
 477 0 l 25
 600 635 l 25
 499 635 l 25
 423 281 l 25
 355 635 l 25
 255 635 l 25
 183 281 l 25
 112 635 l 25
 0 635 l 25
EndSplineSet
EndChar

StartChar: L
Encoding: 76 76 26
Width: 330
VWidth: 0
Flags: HW
LayerCount: 2
Back
Fore
SplineSet
0 635 m 25
 0 0 l 1
 330 0 l 25
 330 102 l 25
 102 102 l 1
 102 635 l 25
 0 635 l 25
EndSplineSet
EndChar

StartChar: K
Encoding: 75 75 27
Width: 420
VWidth: 0
Flags: HW
LayerCount: 2
Back
Fore
SplineSet
0 0 m 25
 103 0 l 1
 103 160 l 1
 173 265 l 1
 307 0 l 1
 423 0 l 1
 240 366 l 25
 420 635 l 25
 298 635 l 25
 103 341 l 25
 103 635 l 25
 0 635 l 25
 0 0 l 25
EndSplineSet
EndChar

StartChar: I
Encoding: 73 73 28
Width: 100
VWidth: 0
Flags: HW
LayerCount: 2
Back
Fore
SplineSet
0 635 m 1
 100 635 l 25
 100 0 l 25
 0 0 l 1
 0 635 l 1
EndSplineSet
EndChar

StartChar: a
Encoding: 97 97 29
Width: 328
VWidth: 0
Flags: HW
LayerCount: 2
Back
Fore
SplineSet
220 230 m 1
 165.058423981 233.504292807 61.5119283981 132.466614019 108 95 c 0
 153.497897564 58.3314072199 186 79 220 101 c 1
 220 230 l 1
215 0 m 25
 216 28 l 17
 196.594700914 8.65713635034 73.1750609902 -20.2285227073 36 21 c 0
 -78.3423381372 147.809897784 101.977271206 287 191 287 c 10
 216 287 l 25
 216 351 l 26
 216 370 194 380 174 380 c 27
 148 380 133 356 133 328 c 9
 30 328 l 1
 30 341 l 2
 30 414 92.947265625 480 178 480 c 3
 240.032226562 480 328 429 328 310 c 2
 328 0 l 1
 215 0 l 25
EndSplineSet
EndChar

StartChar: x
Encoding: 120 120 30
Width: 334
VWidth: 0
Flags: HW
LayerCount: 2
Back
Fore
SplineSet
354 0 m 25
 221 260 l 1
 334 480 l 1
 228 480 l 1
 167 359 l 1
 112 480 l 1
 0 480 l 25
 119 260 l 1
 0 0 l 25
 98 0 l 25
 167 163 l 25
 249 0 l 25
 354 0 l 25
EndSplineSet
EndChar

StartChar: k
Encoding: 107 107 31
Width: 328
VWidth: 0
Flags: HW
LayerCount: 2
Back
Fore
SplineSet
0 635 m 25
 0 0 l 25
 104 0 l 25
 104 133 l 25
 148 203 l 25
 216 0 l 25
 327 0 l 25
 220 311 l 25
 328 480 l 25
 204 480 l 25
 102 318 l 25
 102 635 l 25
 0 635 l 25
EndSplineSet
EndChar

StartChar: j
Encoding: 106 106 32
Width: 162
VWidth: 0
Flags: HW
LayerCount: 2
Back
Fore
SplineSet
60 480 m 1
 60 13 l 18
 60 -15 47 -22 22 -26 c 1
 0 -133 l 1
 101.701863918 -109.530339096 162 -77 162 18 c 26
 162 480 l 1
 60 480 l 1
60 635 m 25
 60 534 l 25
 162 534 l 25
 162 635 l 25
 60 635 l 25
EndSplineSet
EndChar

StartChar: e
Encoding: 101 101 33
Width: 326
VWidth: 0
Flags: HW
LayerCount: 2
Back
Fore
SplineSet
98 314 m 9
 218 314 l 25
 218 348 l 17
 204 373 172.475714658 395.031575441 138 381 c 0
 110.136185533 369.659460184 98 341 98 314 c 9
0 169 m 2
 0 313 l 2
 -6.91925441518e-15 426 88 480 168 480 c 3
 255 480 325 388 325 300 c 10
 325 226 l 1
 102 226 l 25
 102 168 l 26
 102 134 124 102 158 102 c 27
 186 102 213 120 213 148 c 26
 213 174 l 25
 326 174 l 1
 326 113 261 0 167 0 c 3
 86 0 -6.00076931582e-15 71 0 169 c 2
EndSplineSet
EndChar

StartChar: adieresis
Encoding: 228 228 34
Width: 328
VWidth: 0
Flags: HW
LayerCount: 2
Back
Fore
SplineSet
219 635 m 1
 323 635 l 1
 323 533 l 1
 219 533 l 1
 219 635 l 1
42 635 m 1
 146 635 l 1
 146 533 l 1
 42 533 l 1
 42 635 l 1
EndSplineSet
Refer: 29 97 N 1 0 0 1 0 0 2
EndChar

StartChar: o
Encoding: 111 111 35
Width: 332
VWidth: 0
Flags: HW
LayerCount: 2
Back
Fore
SplineSet
98 320 m 2
 98 170 l 2
 98 133 130 97 167 97 c 3
 206 97 236 131 236 170 c 2
 236 320 l 2
 236 357 204 383 167 383 c 3
 129 383 98 358 98 320 c 2
0 320 m 2
 0 408 79 480 167 480 c 3
 253 480 332 406 332 320 c 2
 332 170 l 2
 332 82 254 0 167 0 c 3
 77 0 -5.51091059616e-15 80 0 170 c 2
 0 320 l 2
EndSplineSet
EndChar

StartChar: odieresis
Encoding: 246 246 36
Width: 332
VWidth: 0
Flags: HW
LayerCount: 2
Fore
SplineSet
202.5 635 m 1
 306.5 635 l 1
 306.5 533 l 1
 202.5 533 l 1
 202.5 635 l 1
25.5 635 m 1
 129.5 635 l 1
 129.5 533 l 1
 25.5 533 l 1
 25.5 635 l 1
EndSplineSet
Refer: 35 111 N 1 0 0 1 0 0 2
EndChar

StartChar: T
Encoding: 84 84 37
Width: 420
VWidth: 0
Flags: HW
LayerCount: 2
Back
Fore
SplineSet
0 635 m 1
 0 534 l 25
 164 534 l 25
 164 0 l 25
 266 0 l 25
 266 534 l 1
 420 534 l 25
 420 635 l 25
 0 635 l 1
EndSplineSet
EndChar
